<svg xmlns="http://www.w3.org/2000/svg" xmlns:xlink="http://www.w3.org/1999/xlink" id="Layer_1" width="100" height="100" x="0" y="0" enable-background="new 0 0 100 100" version="1.1" viewBox="0 0 100 100" xml:space="preserve"><g id="layer1_1_"><polygon fill="#231F20" points="65.269 85.165 23.208 85.165 23.429 57.022 17.109 56.962 17.074 92 71.927 92 71.927 57.126 65.269 57.126"/><rect width="32.947" height="7.008" x="27.414" y="73.601" fill="#231F20"/><rect width="33.122" height="7.186" x="27.765" y="62.557" fill="#231F20" transform="matrix(0.9954 0.0961 -0.0961 0.9954 6.5615 -3.9532)"/><rect width="33.122" height="7.184" x="29.605" y="51.079" fill="#231F20" transform="matrix(0.9624 0.2716 -0.2716 0.9624 16.5844 -10.4838)"/><rect width="33.122" height="7.186" x="34.687" y="38.636" fill="#231F20" transform="matrix(0.856 0.517 -0.517 0.856 29.2145 -20.4144)"/><rect width="33.122" height="7.185" x="45.221" y="27.283" fill="#231F20" transform="matrix(-0.5824 -0.8129 0.8129 -0.5824 72.6673 99.0802)"/><rect width="7.185" height="33.123" x="73.06" y="8.366" fill="#231F20" transform="matrix(0.9863 -0.1649 0.1649 0.9863 -3.0607 12.9782)"/></g></svg>